<?xml version="1.0" encoding="utf-8"?>
<!-- Generator: Adobe Illustrator 25.1.0, SVG Export Plug-In . SVG Version: 6.00 Build 0)  -->
<svg version="1.1" id="Capa_1" xmlns="http://www.w3.org/2000/svg" xmlns:xlink="http://www.w3.org/1999/xlink" x="0px" y="0px"
	 viewBox="0 0 841.89 595.28" style="enable-background:new 0 0 841.89 595.28;" xml:space="preserve">
<style type="text/css">
	.st0{fill:#EFEFEF;}
	.st1{fill:none;stroke:#6E6E6D;stroke-width:0.25;stroke-miterlimit:10;}
</style>
<rect x="0.27" class="st0" width="841.34" height="595.28"/>
<g>
	<polygon class="st1" points="710.95,472.27 737.16,471.87 750.61,494.37 737.85,517.26 711.64,517.66 698.19,495.16 	"/>
	<polygon class="st1" points="779.54,446.52 753.33,446.92 740.57,469.81 754.02,492.31 780.23,491.91 792.99,469.02 	"/>
	<polygon class="st1" points="694.38,447.81 668.17,448.21 655.41,471.11 668.86,493.61 695.07,493.21 707.83,470.31 	"/>
	<polygon class="st1" points="797.82,520.93 824.03,520.53 837.49,543.02 824.73,565.92 798.52,566.32 785.06,543.82 	"/>
	<polygon class="st1" points="754.08,496.36 780.29,495.96 793.74,518.46 780.98,541.36 754.77,541.76 741.32,519.26 	"/>
	<polygon class="st1" points="754.85,546.71 781.06,546.31 794.51,568.81 781.75,591.71 755.54,592.11 742.09,569.61 	"/>
	<polygon class="st1" points="695.13,497.21 668.92,497.61 656.16,520.51 669.61,543.01 695.82,542.61 708.58,519.71 	"/>
	<polygon class="st1" points="737.92,521.84 711.71,522.24 698.95,545.14 712.4,567.64 738.61,567.24 751.37,544.34 	"/>
	<polyline class="st1" points="837.25,593.16 823.8,570.66 797.59,571.06 785.5,593.95 	"/>
	<polyline class="st1" points="841.16,545.39 827.55,569.4 841.89,593.09 	"/>
	<polyline class="st1" points="750.81,594.33 737.36,571.83 711.15,572.23 698.47,595.28 	"/>
</g>
</svg>
