<?xml version="1.0" encoding="utf-8"?>
<!-- Generator: Adobe Illustrator 25.1.0, SVG Export Plug-In . SVG Version: 6.00 Build 0)  -->
<svg version="1.1" id="Capa_1" xmlns="http://www.w3.org/2000/svg" xmlns:xlink="http://www.w3.org/1999/xlink" x="0px" y="0px"
	 viewBox="0 0 841.34 429.98" style="enable-background:new 0 0 841.34 429.98;" xml:space="preserve">
<style type="text/css">
	.st0{fill:#FAFAFA;}
	.st1{fill:none;stroke:#6E6E6D;stroke-width:0.25;stroke-miterlimit:10;}
</style>
<rect y="0" class="st0" width="841.34" height="429.98"/>
<polygon class="st1" points="122.81,301.48 122.81,327.69 100.1,340.8 77.4,327.69 77.4,301.48 100.1,288.37 "/>
<polygon class="st1" points="147.51,370.45 147.51,344.24 124.81,331.13 102.1,344.24 102.1,370.45 124.81,383.56 "/>
<polygon class="st1" points="147.51,285.28 147.51,259.07 124.81,245.96 102.1,259.07 102.1,285.28 124.81,298.39 "/>
<polygon class="st1" points="171.88,243.08 171.88,216.87 149.18,203.76 126.47,216.87 126.47,243.08 149.18,256.19 "/>
<polygon class="st1" points="171.88,328.41 171.88,302.2 149.18,289.09 126.47,302.2 126.47,328.41 149.18,341.52 "/>
<polygon class="st1" points="196.83,285.28 196.83,259.07 174.13,245.96 151.42,259.07 151.42,285.28 174.13,298.39 "/>
<polygon class="st1" points="98.06,344.24 98.06,370.45 75.35,383.56 52.65,370.45 52.65,344.24 75.35,331.13 "/>
<polygon class="st1" points="47.7,344.24 47.7,370.45 25,383.56 2.3,370.45 2.3,344.24 25,331.13 "/>
<polygon class="st1" points="98.1,285.28 98.1,259.07 75.4,245.96 52.7,259.07 52.7,285.28 75.4,298.39 "/>
<polygon class="st1" points="72.83,327.69 72.83,301.48 50.13,288.37 27.42,301.48 27.42,327.69 50.13,340.8 "/>
<polyline class="st1" points="0.15,339.48 22.85,326.37 22.85,300.16 0,287.13 "/>
</svg>
