<?xml version="1.0" encoding="utf-8"?>
<!-- Generator: Adobe Illustrator 25.1.0, SVG Export Plug-In . SVG Version: 6.00 Build 0)  -->
<svg version="1.1" id="Capa_1" xmlns="http://www.w3.org/2000/svg" xmlns:xlink="http://www.w3.org/1999/xlink" x="0px" y="0px"
	 viewBox="0 0 841.34 429.98" style="enable-background:new 0 0 841.34 429.98;" xml:space="preserve">
<style type="text/css">
	.st0{fill:none;}
	.st1{fill:none;stroke:#6E6E6D;stroke-width:0.25;stroke-miterlimit:10;}
</style>
<rect x="0" y="0" class="st0" width="841.34" height="429.98"/>
<polygon class="st1" points="741.24,248.37 763.94,261.48 763.94,287.69 741.24,300.8 718.53,287.69 718.53,261.48 "/>
<polygon class="st1" points="716.53,343.56 739.24,330.45 739.24,304.24 716.53,291.13 693.83,304.24 693.83,330.45 "/>
<polygon class="st1" points="691.04,300.8 713.75,287.69 713.75,261.48 691.04,248.37 668.34,261.48 668.34,287.69 "/>
<polygon class="st1" points="716.53,258.39 739.24,245.28 739.24,219.07 716.53,205.96 693.83,219.07 693.83,245.28 "/>
<polygon class="st1" points="741.23,214.99 763.94,201.88 763.94,175.67 741.23,162.56 718.53,175.67 718.53,201.88 "/>
<polygon class="st1" points="791.21,334.5 813.92,347.61 813.92,373.82 791.21,386.93 768.51,373.82 768.51,347.61 "/>
<polygon class="st1" points="765.99,291.13 788.69,304.24 788.69,330.45 765.99,343.56 743.28,330.45 743.28,304.24 "/>
<polygon class="st1" points="816.34,291.13 839.04,304.24 839.04,330.45 816.34,343.56 793.64,330.45 793.64,304.24 "/>
<polygon class="st1" points="765.94,258.39 788.64,245.28 788.64,219.07 765.94,205.96 743.24,219.07 743.24,245.28 "/>
<polygon class="st1" points="791.21,300.8 813.92,287.69 813.92,261.48 791.21,248.37 768.51,261.48 768.51,287.69 "/>
<polyline class="st1" points="841.34,334.17 818.64,346.61 818.64,372.82 841.34,385.93 "/>
<polyline class="st1" points="841.34,247.13 818.49,260.16 818.49,286.37 841.19,299.48 "/>
</svg>
