<?xml version="1.0" encoding="utf-8"?>
<!-- Generator: Adobe Illustrator 25.1.0, SVG Export Plug-In . SVG Version: 6.00 Build 0)  -->
<svg version="1.1" id="Capa_1" xmlns="http://www.w3.org/2000/svg" xmlns:xlink="http://www.w3.org/1999/xlink" x="0px" y="0px"
	 viewBox="0 0 916.02 485.84" style="enable-background:new 0 0 916.02 485.84;" xml:space="preserve">
<style type="text/css">
	.st0{fill:#EFEFEF;}
	.st1{fill:none;stroke:#6E6E6D;stroke-width:0.25;stroke-miterlimit:10;}
</style>
<rect x="0" y="0" class="st0" width="916.02" height="485.84"/>
<polygon class="st1" points="795.88,361.96 820.22,361.96 832.38,384.66 820.22,407.36 795.88,407.36 783.71,384.66 "/>
<polygon class="st1" points="859.91,337.26 835.58,337.26 823.41,359.96 835.58,382.66 859.91,382.66 872.08,359.96 "/>
<polygon class="st1" points="780.84,337.26 756.51,337.26 744.34,359.96 756.51,382.66 780.84,382.66 793.01,359.96 "/>
<polygon class="st1" points="875.84,411.94 900.17,411.94 912.34,434.64 900.17,457.34 875.84,457.34 863.67,434.64 "/>
<polygon class="st1" points="835.58,386.71 859.91,386.71 872.08,409.41 859.91,432.11 835.58,432.11 823.41,409.41 "/>
<polygon class="st1" points="835.58,437.06 859.91,437.06 872.08,459.76 859.91,482.47 835.58,482.47 823.41,459.76 "/>
<polygon class="st1" points="780.84,386.66 756.51,386.66 744.34,409.36 756.51,432.06 780.84,432.06 793.01,409.36 "/>
<polygon class="st1" points="820.22,411.94 795.88,411.94 783.71,434.64 795.88,457.34 820.22,457.34 832.38,434.64 "/>
<polyline class="st1" points="911.41,484.76 899.24,462.06 874.91,462.06 863.36,484.76 "/>
<polyline class="st1" points="915.72,437.06 902.74,460.86 915.72,484.76 "/>
<polyline class="st1" points="831.15,484.61 818.98,461.91 794.65,461.91 782.56,484.76 "/>
</svg>
